<svg width="1200" height="900" viewBox="0 0 1200 900" fill="none" xmlns="http://www.w3.org/2000/svg">
  <rect width="1200" height="900" rx="48" fill="#F6EEE7"/>
  <rect x="44" y="44" width="1112" height="812" rx="34" fill="url(#paint0_linear)"/>
  <circle cx="1002" cy="178" r="130" fill="#C8E0E5" fill-opacity="0.92"/>
  <circle cx="220" cy="736" r="154" fill="#F3D2B7" fill-opacity="0.92"/>
  <rect x="116" y="112" width="196" height="54" rx="27" fill="#0F5F78"/>
  <text x="214" y="146" text-anchor="middle" fill="white" font-family="Space Grotesk, Arial, sans-serif" font-size="28" font-weight="700">ICCV 2025</text>
  <text x="116" y="270" fill="#1D2433" font-family="Space Grotesk, Arial, sans-serif" font-size="72" font-weight="700">BoxDreamer</text>
  <text x="116" y="352" fill="#1D2433" font-family="Space Grotesk, Arial, sans-serif" font-size="52" font-weight="700">Dreaming Box Corners for</text>
  <text x="116" y="418" fill="#1D2433" font-family="Space Grotesk, Arial, sans-serif" font-size="52" font-weight="700">Generalizable Pose Estimation</text>
  <text x="116" y="490" fill="#4E5868" font-family="Noto Sans SC, Arial, sans-serif" font-size="34" font-weight="500">Robust geometric reasoning from box-corner prediction</text>
  <rect x="118" y="578" width="186" height="186" rx="24" stroke="#0F5F78" stroke-width="18"/>
  <rect x="190" y="650" width="186" height="186" rx="24" stroke="#BF5F2F" stroke-width="18"/>
  <rect x="262" y="578" width="186" height="186" rx="24" stroke="#A22A56" stroke-width="18"/>
  <path d="M732 604L858 530L984 604V748L858 820L732 748V604Z" fill="#0F5F78" fill-opacity="0.94"/>
  <path d="M782 632L858 588L934 632V720L858 764L782 720V632Z" fill="#F8F4EE"/>
  <path d="M858 530V676" stroke="#F8F4EE" stroke-width="14"/>
  <path d="M732 604L858 676L984 604" stroke="#F8F4EE" stroke-width="14"/>
  <defs>
    <linearGradient id="paint0_linear" x1="98" y1="100" x2="1094" y2="828" gradientUnits="userSpaceOnUse">
      <stop stop-color="#FFF9F3"/>
      <stop offset="1" stop-color="#ECE2D7"/>
    </linearGradient>
  </defs>
</svg>
