<svg width="1200" height="900" viewBox="0 0 1200 900" fill="none" xmlns="http://www.w3.org/2000/svg">
  <rect width="1200" height="900" rx="48" fill="#F6EEE7"/>
  <rect x="44" y="44" width="1112" height="812" rx="34" fill="url(#paint0_linear)"/>
  <circle cx="1008" cy="178" r="124" fill="#F2C9D4" fill-opacity="0.9"/>
  <circle cx="218" cy="736" r="160" fill="#C8E0E5" fill-opacity="0.9"/>
  <rect x="116" y="112" width="242" height="54" rx="27" fill="#A22A56"/>
  <text x="237" y="146" text-anchor="middle" fill="white" font-family="Space Grotesk, Arial, sans-serif" font-size="28" font-weight="700">IEEE TKDE 2026</text>
  <text x="116" y="270" fill="#1D2433" font-family="Space Grotesk, Arial, sans-serif" font-size="72" font-weight="700">Quantum Multisource</text>
  <text x="116" y="352" fill="#1D2433" font-family="Space Grotesk, Arial, sans-serif" font-size="72" font-weight="700">Information Fusion</text>
  <text x="116" y="420" fill="#4E5868" font-family="Noto Sans SC, Arial, sans-serif" font-size="34" font-weight="500">CDGFN-based framework for time series classification</text>
  <rect x="116" y="520" width="430" height="186" rx="24" fill="#FFFFFF" fill-opacity="0.88"/>
  <text x="150" y="586" fill="#0F5F78" font-family="Space Grotesk, Arial, sans-serif" font-size="32" font-weight="700">First Author</text>
  <text x="150" y="640" fill="#1D2433" font-family="Noto Sans SC, Arial, sans-serif" font-size="28" font-weight="500">Junhao Yu</text>
  <text x="150" y="686" fill="#5E6574" font-family="Noto Sans SC, Arial, sans-serif" font-size="24" font-weight="500">Knowledge and data engineering</text>
  <path d="M824 506C878 462 954 450 1018 472C1077 492 1121 540 1140 600C1083 646 1007 660 938 640C882 624 841 582 824 506Z" fill="#0F5F78"/>
  <path d="M770 642C826 598 901 584 968 605C1025 624 1068 671 1088 729C1030 775 952 791 883 770C827 753 787 716 770 642Z" fill="#BF5F2F"/>
  <defs>
    <linearGradient id="paint0_linear" x1="110" y1="98" x2="1098" y2="824" gradientUnits="userSpaceOnUse">
      <stop stop-color="#FFF9F3"/>
      <stop offset="1" stop-color="#ECE2D7"/>
    </linearGradient>
  </defs>
</svg>
